<svg width="32" height="32" viewBox="0 0 32 32" fill="none" xmlns="http://www.w3.org/2000/svg">
<g id="bathtub_FILL0_wght300_GRAD0_opsz48">
<path id="Vector" d="M9.23325 12.9334C8.63325 12.9334 8.12214 12.7223 7.69992 12.3001C7.2777 11.8779 7.06659 11.3668 7.06659 10.7668C7.06659 10.1668 7.2777 9.65565 7.69992 9.23343C8.12214 8.81121 8.63325 8.6001 9.23325 8.6001C9.83325 8.6001 10.3444 8.81121 10.7666 9.23343C11.1888 9.65565 11.3999 10.1668 11.3999 10.7668C11.3999 11.3668 11.1888 11.8779 10.7666 12.3001C10.3444 12.7223 9.83325 12.9334 9.23325 12.9334ZM6.73325 28.6668C6.33325 28.6668 5.98881 28.5501 5.69992 28.3168C5.41103 28.0834 5.26659 27.7557 5.26659 27.3334C4.73325 27.3334 4.2777 27.139 3.89992 26.7501C3.52214 26.3612 3.33325 25.9112 3.33325 25.4001V18.9668C3.33325 18.7001 3.4277 18.4723 3.61659 18.2834C3.80547 18.0945 4.03325 18.0001 4.29992 18.0001H7.06659V17.0668C7.06659 16.3334 7.32214 15.7112 7.83325 15.2001C8.34436 14.689 8.9777 14.4334 9.73325 14.4334C10.111 14.4334 10.4888 14.5168 10.8666 14.6834C11.2444 14.8501 11.5666 15.0779 11.8333 15.3668L13.3666 17.1334C13.5221 17.289 13.6833 17.4445 13.8499 17.6001C14.0166 17.7557 14.1888 17.889 14.3666 18.0001H23.6666V6.9001C23.6666 6.41121 23.4999 5.99454 23.1666 5.6501C22.8333 5.30565 22.4333 5.13343 21.9666 5.13343C21.7221 5.13343 21.4888 5.16676 21.2666 5.23343C21.0444 5.3001 20.8555 5.42232 20.6999 5.6001L18.9999 7.3001C19.0888 7.67788 19.0999 8.05565 19.0333 8.43343C18.9666 8.81121 18.8333 9.17788 18.6333 9.53343L15.6333 6.66676C15.9666 6.42232 16.3333 6.27232 16.7333 6.21676C17.1333 6.16121 17.5333 6.2001 17.9333 6.33343L19.6333 4.66676C19.9444 4.35565 20.2999 4.1001 20.6999 3.9001C21.0999 3.7001 21.5221 3.6001 21.9666 3.6001C22.8555 3.6001 23.611 3.92232 24.2333 4.56676C24.8555 5.21121 25.1666 5.98899 25.1666 6.9001V18.0001H27.6999C27.9666 18.0001 28.1944 18.0945 28.3833 18.2834C28.5721 18.4723 28.6666 18.7001 28.6666 18.9668V25.4001C28.6666 25.9334 28.4721 26.389 28.0833 26.7668C27.6944 27.1445 27.2444 27.3334 26.7333 27.3334C26.7333 27.7557 26.5888 28.0834 26.2999 28.3168C26.011 28.5501 25.6555 28.6668 25.2333 28.6668H6.73325ZM5.26659 25.8334H26.7333C26.8666 25.8334 26.9721 25.7945 27.0499 25.7168C27.1277 25.639 27.1666 25.5334 27.1666 25.4001V19.5001H4.83325V25.4001C4.83325 25.5334 4.87214 25.639 4.94992 25.7168C5.0277 25.7945 5.13325 25.8334 5.26659 25.8334ZM27.1666 25.8334H4.83325H27.1666Z" fill="white"/>
</g>
</svg>
