<svg width="32" height="32" viewBox="0 0 32 32" fill="none" xmlns="http://www.w3.org/2000/svg">
<g id="bed_FILL0_wght300_GRAD0_opsz48">
<path id="Vector" d="M4.09992 24.6667C3.8777 24.6667 3.69436 24.5944 3.54992 24.45C3.40547 24.3056 3.33325 24.1222 3.33325 23.9V16.9667C3.33325 16.5 3.44436 16.0333 3.66659 15.5667C3.88881 15.1 4.22214 14.7444 4.66659 14.5V11C4.66659 10.1556 4.95547 9.44444 5.53325 8.86667C6.11103 8.28889 6.82214 8 7.66659 8H13.7999C14.2666 8 14.6888 8.10556 15.0666 8.31667C15.4444 8.52778 15.7555 8.81111 15.9999 9.16667C16.2444 8.81111 16.5499 8.52778 16.9166 8.31667C17.2833 8.10556 17.6999 8 18.1666 8H24.3333C25.1777 8 25.8888 8.28889 26.4666 8.86667C27.0444 9.44444 27.3333 10.1556 27.3333 11V14.5C27.7777 14.7444 28.111 15.1 28.3333 15.5667C28.5555 16.0333 28.6666 16.5 28.6666 16.9667V23.9C28.6666 24.1222 28.5944 24.3056 28.4499 24.45C28.3055 24.5944 28.1221 24.6667 27.8999 24.6667C27.6777 24.6667 27.4999 24.5944 27.3666 24.45C27.2333 24.3056 27.1666 24.1222 27.1666 23.9V22H4.83325V23.9C4.83325 24.1222 4.76659 24.3056 4.63325 24.45C4.49992 24.5944 4.32214 24.6667 4.09992 24.6667ZM16.7666 14.1H25.8333V11C25.8333 10.5778 25.6833 10.2222 25.3833 9.93333C25.0833 9.64444 24.7333 9.5 24.3333 9.5H18.0999C17.7221 9.5 17.4055 9.65 17.1499 9.95C16.8944 10.25 16.7666 10.6 16.7666 11V14.1ZM6.16659 14.1H15.2333V11C15.2333 10.6 15.1055 10.25 14.8499 9.95C14.5944 9.65 14.2777 9.5 13.8999 9.5H7.66659C7.26659 9.5 6.91659 9.65 6.61659 9.95C6.31659 10.25 6.16659 10.6 6.16659 11V14.1ZM4.83325 20.5H27.1666V16.9667C27.1666 16.5889 27.0388 16.2722 26.7833 16.0167C26.5277 15.7611 26.211 15.6333 25.8333 15.6333H6.16659C5.78881 15.6333 5.47214 15.7611 5.21659 16.0167C4.96103 16.2722 4.83325 16.5889 4.83325 16.9667V20.5ZM27.1666 20.5H4.83325H27.1666Z" fill="white"/>
</g>
</svg>
