<svg width="120" height="120" viewBox="0 0 120 120" fill="none" xmlns="http://www.w3.org/2000/svg">
<g id="rule_FILL0_wght300_GRAD0_opsz48 1">
<path id="Vector" d="M82.625 43.875L102.5 24.125C103.083 23.5417 103.75 23.25 104.5 23.25C105.25 23.25 105.917 23.5417 106.5 24.125C107.083 24.7083 107.375 25.375 107.375 26.125C107.375 26.875 107.083 27.5417 106.5 28.125L85.25 49.375C84.5833 50.125 83.75 50.5 82.75 50.5C81.75 50.5 80.9167 50.125 80.25 49.375L69.25 38.5C68.75 37.9167 68.5 37.25 68.5 36.5C68.5 35.75 68.75 35.0833 69.25 34.5C69.8333 34 70.5 33.75 71.25 33.75C72 33.75 72.6667 34 73.25 34.5L82.625 43.875ZM14.125 42.875C13.2917 42.875 12.6042 42.6042 12.0625 42.0625C11.5208 41.5208 11.25 40.8333 11.25 40C11.25 39.1667 11.5208 38.4792 12.0625 37.9375C12.6042 37.3958 13.2917 37.125 14.125 37.125H50.875C51.7083 37.125 52.3958 37.3958 52.9375 37.9375C53.4792 38.4792 53.75 39.1667 53.75 40C53.75 40.8333 53.4792 41.5208 52.9375 42.0625C52.3958 42.6042 51.7083 42.875 50.875 42.875H14.125ZM85 84L73.25 95.625C72.6667 96.125 72 96.3958 71.25 96.4375C70.5 96.4792 69.8333 96.2083 69.25 95.625C68.75 95.0417 68.5 94.375 68.5 93.625C68.5 92.875 68.75 92.2083 69.25 91.625L81 80L69.25 68.375C68.75 67.7917 68.5 67.125 68.5 66.375C68.5 65.625 68.75 64.9583 69.25 64.375C69.8333 63.7917 70.5 63.5208 71.25 63.5625C72 63.6042 72.6667 63.875 73.25 64.375L85 76L96.625 64.375C97.2083 63.7917 97.875 63.5 98.625 63.5C99.375 63.5 100.042 63.7917 100.625 64.375C101.208 64.9583 101.5 65.625 101.5 66.375C101.5 67.125 101.208 67.7917 100.625 68.375L89 80L100.625 91.625C101.208 92.2083 101.5 92.875 101.5 93.625C101.5 94.375 101.208 95.0417 100.625 95.625C100.042 96.2083 99.375 96.5 98.625 96.5C97.875 96.5 97.2083 96.2083 96.625 95.625L85 84ZM14.125 82.875C13.2917 82.875 12.6042 82.6042 12.0625 82.0625C11.5208 81.5208 11.25 80.8333 11.25 80C11.25 79.1667 11.5208 78.4792 12.0625 77.9375C12.6042 77.3958 13.2917 77.125 14.125 77.125H50.875C51.7083 77.125 52.3958 77.3958 52.9375 77.9375C53.4792 78.4792 53.75 79.1667 53.75 80C53.75 80.8333 53.4792 81.5208 52.9375 82.0625C52.3958 82.6042 51.7083 82.875 50.875 82.875H14.125Z" fill="#3A5295"/>
</g>
</svg>
