<svg width="24" height="24" viewBox="0 0 24 24" fill="none" xmlns="http://www.w3.org/2000/svg">
<g id="home_FILL0_wght300_GRAD0_opsz48 1">
<path id="Vector" d="M5.625 19.3749H9.525V13.2499H14.475V19.3749H18.375V9.8249L12 5.0249L5.625 9.8249V19.3749ZM5.625 20.4999C5.325 20.4999 5.0625 20.3874 4.8375 20.1624C4.6125 19.9374 4.5 19.6749 4.5 19.3749V9.8249C4.5 9.64157 4.5375 9.47074 4.6125 9.3124C4.6875 9.15407 4.8 9.0249 4.95 8.9249L11.325 4.1249C11.425 4.04157 11.5333 3.98324 11.65 3.9499C11.7667 3.91657 11.8833 3.8999 12 3.8999C12.1333 3.8999 12.2542 3.91657 12.3625 3.9499C12.4708 3.98324 12.575 4.04157 12.675 4.1249L19.05 8.9249C19.2 9.0249 19.3125 9.15407 19.3875 9.3124C19.4625 9.47074 19.5 9.64157 19.5 9.8249V19.3749C19.5 19.6749 19.3875 19.9374 19.1625 20.1624C18.9375 20.3874 18.675 20.4999 18.375 20.4999H13.325V14.3749H10.675V20.4999H5.625Z" fill="black"/>
</g>
</svg>
