<svg width="120" height="120" viewBox="0 0 120 120" fill="none" xmlns="http://www.w3.org/2000/svg">
<path d="M28.375 107.5C25.2917 107.5 22.6667 106.417 20.5 104.25C18.3333 102.083 17.25 99.4583 17.25 96.375V87C17.25 86 17.5833 85.1458 18.25 84.4375C18.9167 83.7292 19.7917 83.375 20.875 83.375H32.875V16.75C32.875 15.8333 33.2292 15.3333 33.9375 15.25C34.6458 15.1667 35.3333 15.4167 36 16L39.75 19.75L45.5 14.25C45.8333 13.8333 46.2708 13.625 46.8125 13.625C47.3542 13.625 47.7917 13.8333 48.125 14.25L53.75 19.75L59.5 14.25C59.8333 13.8333 60.25 13.625 60.75 13.625C61.25 13.625 61.7083 13.8333 62.125 14.25L67.75 19.75L73.5 14.25C73.8333 13.8333 74.2708 13.625 74.8125 13.625C75.3542 13.625 75.7917 13.8333 76.125 14.25L81.875 19.75L87.5 14.25C87.8333 13.8333 88.2708 13.625 88.8125 13.625C89.3542 13.625 89.7917 13.8333 90.125 14.25L95.875 19.75L99.625 16C100.292 15.3333 100.979 15.0833 101.687 15.25C102.396 15.4167 102.75 15.9167 102.75 16.75V96.375C102.75 99.4583 101.667 102.083 99.5 104.25C97.3333 106.417 94.7083 107.5 91.625 107.5H28.375ZM91.625 101.875C93.2083 101.875 94.5208 101.354 95.5625 100.312C96.6042 99.2708 97.125 97.9583 97.125 96.375V23.125H38.5V83.375H82.625C83.625 83.375 84.4792 83.7292 85.1875 84.4375C85.8958 85.1458 86.25 86 86.25 87V96.375C86.25 97.9583 86.75 99.2708 87.75 100.312C88.75 101.354 90.0417 101.875 91.625 101.875ZM48.375 41.75C47.625 41.75 46.9792 41.4583 46.4375 40.875C45.8958 40.2917 45.625 39.625 45.625 38.875C45.625 38.0417 45.9167 37.3542 46.5 36.8125C47.0833 36.2708 47.75 36 48.5 36H71.25C72 36 72.6458 36.2917 73.1875 36.875C73.7292 37.4583 74 38.125 74 38.875C74 39.7083 73.7292 40.3958 73.1875 40.9375C72.6458 41.4792 72 41.75 71.25 41.75H48.375ZM48.375 58C47.625 58 46.9792 57.7083 46.4375 57.125C45.8958 56.5417 45.625 55.875 45.625 55.125C45.625 54.375 45.9167 53.7292 46.5 53.1875C47.0833 52.6458 47.75 52.375 48.5 52.375H71.25C72 52.375 72.6458 52.6458 73.1875 53.1875C73.7292 53.7292 74 54.4167 74 55.25C74 56.0833 73.7292 56.75 73.1875 57.25C72.6458 57.75 72 58 71.25 58H48.375ZM85.625 42.375C84.7083 42.375 83.8958 42.0208 83.1875 41.3125C82.4792 40.6042 82.125 39.7917 82.125 38.875C82.125 37.9583 82.4792 37.1458 83.1875 36.4375C83.8958 35.7292 84.7083 35.375 85.625 35.375C86.5417 35.375 87.3542 35.7292 88.0625 36.4375C88.7708 37.1458 89.125 37.9583 89.125 38.875C89.125 39.7917 88.7708 40.6042 88.0625 41.3125C87.3542 42.0208 86.5417 42.375 85.625 42.375ZM85.625 58.25C84.7083 58.25 83.8958 57.8958 83.1875 57.1875C82.4792 56.4792 82.125 55.6667 82.125 54.75C82.125 53.8333 82.4792 53.0208 83.1875 52.3125C83.8958 51.6042 84.7083 51.25 85.625 51.25C86.5417 51.25 87.3542 51.6042 88.0625 52.3125C88.7708 53.0208 89.125 53.8333 89.125 54.75C89.125 55.6667 88.7708 56.4792 88.0625 57.1875C87.3542 57.8958 86.5417 58.25 85.625 58.25ZM28.25 101.875H80.5V89.125H22.875V96.375C22.875 97.9583 23.3958 99.2708 24.4375 100.312C25.4792 101.354 26.75 101.875 28.25 101.875ZM22.875 101.875V89.125V101.875Z" fill="#3A5295"/>
</svg>
