<svg width="120" height="120" viewBox="0 0 120 120" fill="none" xmlns="http://www.w3.org/2000/svg">
<path d="M58 107.375C51.6667 107.125 45.7292 105.708 40.1875 103.125C34.6458 100.542 29.8333 97.125 25.75 92.875C21.6667 88.625 18.4375 83.6875 16.0625 78.0625C13.6875 72.4375 12.5 66.4167 12.5 60C12.5 53.4167 13.75 47.25 16.25 41.5C18.75 35.75 22.1458 30.7292 26.4375 26.4375C30.7292 22.1458 35.75 18.75 41.5 16.25C47.25 13.75 53.4167 12.5 60 12.5C72.0833 12.5 82.5417 16.3958 91.375 24.1875C100.208 31.9792 105.417 41.7083 107 53.375H101.25C100.167 46.0417 97.375 39.4792 92.875 33.6875C88.375 27.8958 82.625 23.5833 75.625 20.75V23.125C75.625 25.9583 74.625 28.4375 72.625 30.5625C70.625 32.6875 68.2083 33.75 65.375 33.75H54.75V44.375C54.75 45.7917 54.2083 46.9583 53.125 47.875C52.0417 48.7917 50.7917 49.25 49.375 49.25H39.125V60H51.5V75.375H44.375L19.25 50.375C18.9167 51.9583 18.6458 53.5417 18.4375 55.125C18.2292 56.7083 18.125 58.3333 18.125 60C18.125 71.1667 21.9375 80.7917 29.5625 88.875C37.1875 96.9583 46.6667 101.25 58 101.75V107.375ZM103.875 102.875L88.625 87.875C87.0417 89.0417 85.2917 89.9583 83.375 90.625C81.4583 91.2917 79.5 91.625 77.5 91.625C72.1667 91.625 67.6458 89.7708 63.9375 86.0625C60.2292 82.3542 58.375 77.8333 58.375 72.5C58.375 67.1667 60.2292 62.6458 63.9375 58.9375C67.6458 55.2292 72.1667 53.375 77.5 53.375C82.8333 53.375 87.3542 55.2292 91.0625 58.9375C94.7708 62.6458 96.625 67.1667 96.625 72.5C96.625 74.5 96.2708 76.4792 95.5625 78.4375C94.8542 80.3958 93.9167 82.2083 92.75 83.875L107.875 98.875C108.458 99.4583 108.771 100.125 108.812 100.875C108.854 101.625 108.583 102.333 108 103C107.417 103.5 106.729 103.75 105.938 103.75C105.146 103.75 104.458 103.458 103.875 102.875ZM77.5 85.875C81.25 85.875 84.4167 84.5833 87 82C89.5833 79.4167 90.875 76.25 90.875 72.5C90.875 68.75 89.5833 65.5833 87 63C84.4167 60.4167 81.25 59.125 77.5 59.125C73.75 59.125 70.5833 60.4167 68 63C65.4167 65.5833 64.125 68.75 64.125 72.5C64.125 76.25 65.4167 79.4167 68 82C70.5833 84.5833 73.75 85.875 77.5 85.875Z" fill="#3A5295"/>
</svg>
